<svg width="45" height="45" viewBox="0 0 45 45" fill="none" xmlns="http://www.w3.org/2000/svg">
<path d="M22.9688 42.3385L6.5625 32.6438V13.2938L22.9688 3.59912L39.375 13.2938V32.6438L22.9688 42.3385ZM8.4375 31.5751L22.9688 40.1616L37.5 31.5751V14.3626L22.9688 5.776L8.4375 14.3626V31.5751Z" fill="#FF4081"/>
<path d="M22.9688 8.4375C24.7809 8.4375 26.25 6.96843 26.25 5.15625C26.25 3.34407 24.7809 1.875 22.9688 1.875C21.1566 1.875 19.6875 3.34407 19.6875 5.15625C19.6875 6.96843 21.1566 8.4375 22.9688 8.4375Z" fill="#FF4081"/>
<path d="M22.9688 44.0625C24.7809 44.0625 26.25 42.5934 26.25 40.7812C26.25 38.9691 24.7809 37.5 22.9688 37.5C21.1566 37.5 19.6875 38.9691 19.6875 40.7812C19.6875 42.5934 21.1566 44.0625 22.9688 44.0625Z" fill="#FF4081"/>
<path d="M7.96875 34.6875C9.78094 34.6875 11.25 33.2184 11.25 31.4062C11.25 29.5941 9.78094 28.125 7.96875 28.125C6.15657 28.125 4.6875 29.5941 4.6875 31.4062C4.6875 33.2184 6.15657 34.6875 7.96875 34.6875Z" fill="#FF4081"/>
<path d="M37.9688 34.6875C39.7809 34.6875 41.25 33.2184 41.25 31.4062C41.25 29.5941 39.7809 28.125 37.9688 28.125C36.1566 28.125 34.6875 29.5941 34.6875 31.4062C34.6875 33.2184 36.1566 34.6875 37.9688 34.6875Z" fill="#FF4081"/>
<path d="M7.96875 17.8125C9.78094 17.8125 11.25 16.3434 11.25 14.5313C11.25 12.7191 9.78094 11.25 7.96875 11.25C6.15657 11.25 4.6875 12.7191 4.6875 14.5313C4.6875 16.3434 6.15657 17.8125 7.96875 17.8125Z" fill="#FF4081"/>
<path d="M37.9688 17.8125C39.7809 17.8125 41.25 16.3434 41.25 14.5313C41.25 12.7191 39.7809 11.25 37.9688 11.25C36.1566 11.25 34.6875 12.7191 34.6875 14.5313C34.6875 16.3434 36.1566 17.8125 37.9688 17.8125Z" fill="#FF4081"/>
<path d="M40.05 32.8126H5.88745L22.9687 2.79199L40.05 32.8126ZM9.11245 30.9376H36.825L22.9687 6.58324L9.11245 30.9376Z" fill="#FF4081"/>
</svg>
