<svg width="54" height="54" viewBox="0 0 54 54" fill="none" xmlns="http://www.w3.org/2000/svg">
<path d="M6.75 47.25V6.75H47.25V47.25H6.75Z" fill="#FFD600"/>
<path d="M33.2301 37.0654C34.0086 38.3299 34.8546 39.5415 36.6468 39.5415C38.152 39.5415 38.9418 38.7934 38.9418 37.7584C38.9418 36.5198 38.125 36.0799 36.469 35.3588L35.5611 34.9718C32.941 33.8603 31.1984 32.4675 31.1984 29.5256C31.1984 26.8144 33.274 24.7511 36.5174 24.7511C38.827 24.7511 40.4864 25.551 41.6834 27.6457L38.8551 29.4536C38.233 28.3421 37.5603 27.9045 36.5174 27.9045C35.4531 27.9045 34.7793 28.5761 34.7793 29.4536C34.7793 30.5381 35.4543 30.9769 37.0124 31.6485L37.9203 32.0355C41.0084 33.3506 42.7499 34.6939 42.7499 37.7134C42.7499 40.9669 40.1804 42.75 36.7311 42.75C33.3573 42.75 31.4414 41.0569 30.3749 38.961L33.2301 37.0654ZM20.1959 37.1576C20.7651 38.1769 21.6303 38.961 22.8745 38.961C24.0648 38.961 24.7499 38.4908 24.7499 36.6626V24.75H28.4995V37.2386C28.4995 41.0265 26.3024 42.75 23.0939 42.75C20.1948 42.75 18.1023 40.7858 17.2495 38.961L20.1959 37.1576Z" fill="#000001"/>
</svg>
