<svg width="96" height="96" viewBox="0 0 96 96" fill="none" xmlns="http://www.w3.org/2000/svg">
<path d="M0.000761377 47.741C-0.14702 74.2531 21.2369 95.8588 47.7414 95.9992C74.2607 96.147 95.8589 74.763 95.9993 48.2509C96.1397 21.7387 74.7706 0.140393 48.2586 0H47.9926C21.599 0.0073891 0.141153 21.325 0.000761377 47.741Z" fill="#E4002B"/>
<path d="M63.421 44.4898V70.0266H32.084V44.4898H23.8379L47.7562 20.6969L71.6672 44.4898H63.421ZM79.2336 41.416L50.7192 13.0122C49.9803 12.2216 48.9311 11.7191 47.7562 11.7191H47.7488C46.5814 11.7191 45.5247 12.2142 44.7932 13.0122L16.2789 41.416C15.1779 42.5317 14.4981 44.0539 14.4981 45.746C14.4981 49.1376 17.2468 51.9011 20.6384 51.9011L24.562 51.8937C24.562 51.8937 24.5546 73.4551 24.5546 73.5068C24.5546 75.731 26.3428 77.5265 28.5595 77.5487H66.9604C69.1771 77.5265 70.9652 75.731 70.9652 73.5068C70.9652 73.4625 70.9578 51.8937 70.9578 51.8937L74.8814 51.9011C78.273 51.8937 81.0217 49.1376 81.0217 45.746C81.0143 44.0539 80.3345 42.5317 79.2336 41.416Z" fill="white"/>
</svg>
