<svg width="38" height="38" viewBox="0 0 38 38" fill="none" xmlns="http://www.w3.org/2000/svg">
<g clip-path="url(#clip0)">
<path d="M22.0876 19.0001C22.0876 20.7068 20.7068 22.0876 19.0001 22.0876C17.2934 22.0876 15.9126 20.7068 15.9126 19.0001C15.9126 17.2934 17.2934 15.9126 19.0001 15.9126C20.7068 15.9126 22.0876 17.2934 22.0876 19.0001Z" fill="#8BB7F0"/>
<path d="M19.0001 22.3251C17.167 22.3251 15.675 20.8335 15.675 19C15.675 17.1665 17.167 15.675 19.0001 15.675C20.8331 15.675 22.3251 17.1665 22.3251 19C22.3251 20.8335 20.8331 22.3251 19.0001 22.3251ZM19.0001 16.15C17.4283 16.15 16.15 17.4283 16.15 19C16.15 20.5718 17.4283 21.8501 19.0001 21.8501C20.5718 21.8501 21.8501 20.5718 21.8501 19C21.8501 17.4283 20.5718 16.15 19.0001 16.15Z" fill="#4E7AB5"/>
<path d="M11.6252 35.8638C10.8125 35.8638 10.0724 35.6776 9.425 35.3109C8.342 34.6968 7.5934 33.6385 7.19915 32.1664C6.74077 30.4531 6.7954 28.1774 7.35685 25.5744C2.82915 24.0169 0.237549 21.6271 0.237549 18.9999C0.237549 16.3722 2.82867 13.983 7.35637 12.4259C6.79492 9.82244 6.73982 7.54671 7.1982 5.83339C7.59245 4.36089 8.34105 3.30259 9.42357 2.68889C10.0705 2.32219 10.811 2.13599 11.6238 2.13599C13.7081 2.13599 16.322 3.43274 19.001 5.79254C21.68 3.43511 24.293 2.13931 26.3749 2.13931C27.1876 2.13931 27.9277 2.32551 28.5751 2.69221C29.6567 3.30544 30.4058 4.36184 30.8 5.83244C31.2589 7.54529 31.2038 9.82149 30.6418 12.4254C35.1705 13.9825 37.7626 16.3722 37.7626 18.9999C37.7626 21.6276 35.1705 24.0173 30.6418 25.5749C31.2033 28.1783 31.2584 30.4541 30.7995 32.1669C30.4053 33.638 29.6572 34.6944 28.5765 35.3076C27.9286 35.6743 27.1881 35.8605 26.3759 35.8605C24.2925 35.8605 21.6786 34.5647 19.0005 32.2082C16.3215 34.5676 13.7081 35.8638 11.6252 35.8638ZM9.18512 26.1278C8.7144 28.3683 8.66167 30.2826 9.03502 31.6753C9.29247 32.6376 9.7385 33.305 10.3622 33.6584C10.7198 33.8612 11.145 33.9643 11.6252 33.9643C13.2373 33.9643 15.3597 32.8804 17.6202 30.9067C16.4873 29.7658 15.3815 28.4743 14.3294 27.0635C12.5096 26.8659 10.7806 26.5515 9.18512 26.1278ZM20.3804 30.9058C22.6404 32.8775 24.7632 33.9605 26.3754 33.961C26.8556 33.961 27.2807 33.8579 27.6394 33.6551C28.2611 33.3026 28.7062 32.6367 28.9632 31.6758C29.3365 30.2821 29.2843 28.3683 28.8136 26.1282C27.2166 26.5519 25.4871 26.8664 23.6679 27.064C22.6162 28.4747 21.5118 29.7658 20.3804 30.9058ZM16.8939 27.2616C17.5836 28.1052 18.2894 28.8923 19 29.6081C19.7087 28.8927 20.4151 28.1057 21.1043 27.2616C20.3961 27.2953 19.6907 27.3124 19 27.3124C18.3089 27.3124 17.6031 27.2953 16.8939 27.2616ZM15.3658 25.2599C16.5509 25.3611 17.7731 25.4124 19 25.4124C20.2279 25.4124 21.4487 25.3611 22.6319 25.2604C23.3377 24.2705 24.0108 23.2331 24.6336 22.1753C25.2359 21.1517 25.8025 20.0834 26.3184 18.9994C25.804 17.9183 25.2378 16.8505 24.634 15.8245C24.0127 14.7691 23.3396 13.7317 22.6319 12.7394C21.4496 12.6387 20.2289 12.5874 19 12.5874C17.7708 12.5874 16.5495 12.6387 15.3677 12.7399C14.66 13.7307 13.9859 14.7681 13.3637 15.825C12.7604 16.8505 12.1942 17.9183 11.6793 19.0009C12.1933 20.081 12.7595 21.1488 13.3632 22.1758C13.9826 23.2279 14.6557 24.2648 15.3658 25.2599ZM27.3083 21.2699C26.9729 21.9093 26.6252 22.5363 26.2704 23.1386C25.9127 23.7475 25.5322 24.3584 25.137 24.9607C26.2647 24.7868 27.3434 24.5641 28.3533 24.2957C28.073 23.3224 27.722 22.3073 27.3083 21.2699ZM9.64445 24.2952C10.6548 24.5631 11.733 24.7864 12.8593 24.9602C12.4617 24.3541 12.0812 23.7428 11.7259 23.1386C11.372 22.5368 11.0238 21.9107 10.689 21.2714C10.2771 22.304 9.9266 23.3181 9.64445 24.2952ZM28.4127 18.9999C29.1385 20.6106 29.7298 22.2028 30.174 23.739C33.6899 22.5021 35.8625 20.6976 35.8625 18.9999C35.8625 17.3023 33.6899 15.4977 30.174 14.2608C29.7308 15.797 29.1389 17.3892 28.4127 18.9999ZM7.82425 14.2618C4.30972 15.4982 2.13755 17.3027 2.13755 18.9999C2.13755 20.6976 4.30972 22.5021 7.8252 23.7385C8.26885 22.2019 8.86022 20.6097 9.58507 19.0009C8.85975 17.3916 8.26837 15.7994 7.82425 14.2618ZM9.64397 13.7046C9.92612 14.6803 10.2767 15.6949 10.689 16.7294C11.0234 16.092 11.3711 15.4654 11.7264 14.8617C12.0836 14.2542 12.464 13.6433 12.8607 13.0396C11.733 13.213 10.6548 13.4362 9.64397 13.7046ZM25.138 13.0391C25.5356 13.6457 25.916 14.2566 26.2713 14.8617C26.6257 15.4635 26.9739 16.0901 27.3092 16.7294C27.722 15.6953 28.0725 14.6807 28.3547 13.7041C27.343 13.4358 26.2647 13.2125 25.138 13.0391ZM11.6238 4.03599C11.1435 4.03599 10.7189 4.13859 10.3617 4.34189C9.7385 4.69529 9.292 5.36266 9.03407 6.32501C8.6612 7.71914 8.71345 9.63291 9.18465 11.8725C10.7806 11.4488 12.5106 11.1339 14.3308 10.9363C15.3839 9.52509 16.4897 8.23451 17.6211 7.09451C15.3601 5.11994 13.2364 4.03599 11.6238 4.03599ZM23.6684 10.9358C25.4876 11.1334 27.2171 11.4479 28.814 11.8716C29.2852 9.63149 29.338 7.71724 28.9641 6.32359C28.7067 5.36314 28.2611 4.69719 27.6389 4.34474C27.2807 4.14191 26.8556 4.03884 26.3749 4.03884C24.7632 4.03884 22.6414 5.12231 20.3809 7.09451C21.5114 8.23404 22.6162 9.52509 23.6684 10.9358ZM19 10.6874C19.6907 10.6874 20.3961 10.7045 21.1048 10.7382C20.416 9.89559 19.7102 9.10899 19.001 8.39269C18.2899 9.10994 17.5845 9.89654 16.8958 10.7382C17.604 10.7045 18.3094 10.6874 19 10.6874Z" fill="#8BB7F0"/>
<path d="M11.6237 2.37352C13.7584 2.37352 16.3718 3.75577 19.0014 6.11034C21.6305 3.75767 24.2426 2.37684 26.3753 2.37684C27.1462 2.37684 27.8473 2.55259 28.4587 2.89887C29.4828 3.47932 30.1934 4.48679 30.5705 5.89422C31.0821 7.75479 30.9747 10.0457 30.3644 12.5822C34.7448 14.0457 37.525 16.3547 37.525 18.9999C37.525 21.6452 34.7448 23.9542 30.3639 25.4181C31.0009 28.1603 31.1077 30.513 30.5701 32.1057C30.1929 33.5126 29.4828 34.5206 28.4596 35.101C27.8473 35.4478 27.2911 35.6249 26.5207 35.6249C26.5202 35.6249 26.3231 35.6249 26.3226 35.6249C24.1889 35.6249 21.6286 34.2427 19 31.891C16.3709 34.2451 13.7584 35.6264 11.6247 35.6264C10.8537 35.6264 10.1526 35.4506 9.54132 35.1043C8.51627 34.5225 7.8052 33.5136 7.42852 32.1052C6.86328 30.3396 6.97727 28.0188 7.63468 25.4177C3.2547 23.9537 0.475 21.6452 0.475 18.9999C0.475 16.3551 3.2547 14.0462 7.6342 12.5822C7.30788 11.1292 7.09935 9.78019 7.09222 8.54994C7.08652 7.57809 7.21905 6.67417 7.42805 5.89469C7.8052 4.48584 8.5158 3.47694 9.54085 2.89554C10.1517 2.54879 10.8528 2.37352 11.6237 2.37352ZM9.00505 12.1666C10.6566 11.713 12.4906 11.37 14.4595 11.161C15.5909 9.63627 16.7751 8.26542 17.9678 7.08362C15.6536 5.01927 13.4002 3.79804 11.6237 3.79804C11.1017 3.79804 10.6381 3.91109 10.2443 4.13482C9.56365 4.52099 9.07962 5.23682 8.8046 6.26329C8.39705 7.78424 8.48967 9.84004 9.00505 12.1666ZM28.9935 12.1661C29.5089 9.83957 29.6015 7.78329 29.194 6.26234C28.9194 5.23777 28.4354 4.52337 27.7561 4.13814C27.3619 3.91442 26.8969 3.80137 26.3753 3.80137C24.6003 3.80137 22.3483 5.02117 20.0345 7.08362C21.2268 8.26542 22.4095 9.63627 23.54 11.1605C25.508 11.3695 27.3419 11.7125 28.9935 12.1661ZM16.3766 11.0038C17.2325 10.953 18.0908 10.9088 18.9834 10.9088C19.8759 10.9088 20.767 10.9534 21.6229 11.0038C20.7641 9.92127 19.8825 8.93232 19.0005 8.05689C18.1184 8.93232 17.2363 9.92127 16.3766 11.0038ZM19 25.6499C20.3115 25.6499 21.5669 25.5925 22.761 25.4875C23.4826 24.4819 24.1803 23.4141 24.8377 22.296C25.4804 21.2039 26.0618 20.0986 26.581 18.9999C26.0618 17.9013 25.4804 16.7964 24.8382 15.7049C24.1803 14.5862 23.483 13.5189 22.761 12.5133C21.5674 12.4074 20.312 12.3499 19 12.3499C17.688 12.3499 16.4321 12.4074 15.238 12.5129C14.5155 13.5184 13.8173 14.5862 13.1594 15.7044C12.5172 16.7964 11.9358 17.9017 11.4166 19.0004C11.9358 20.0991 12.5167 21.2039 13.1589 22.2955C13.8168 23.4136 14.5146 24.4814 15.2366 25.487C16.4312 25.5925 17.6876 25.6499 19 25.6499ZM27.3344 17.2961C27.8687 16.0093 28.3109 14.7458 28.6482 13.5374C27.4355 13.204 26.096 12.9285 24.6449 12.7266C25.1332 13.4519 25.6087 14.2039 26.0661 14.9819C26.5192 15.7509 26.9406 16.5242 27.3344 17.2961ZM10.6633 17.2966C11.0566 16.5247 11.4784 15.7514 11.9306 14.9819C12.3885 14.2039 12.8644 13.4524 13.3532 12.7271C11.9021 12.9285 10.5626 13.2045 9.3499 13.5379C9.68715 14.7463 10.1294 16.0093 10.6633 17.2966ZM30.0143 24.0454C33.8504 22.7458 36.1 20.8363 36.1 18.9999C36.1 17.1636 33.8504 15.2541 30.0143 13.9545C29.5616 15.5719 28.9365 17.2714 28.1523 18.9995C28.9365 20.728 29.5616 22.4275 30.0143 24.0454ZM7.98475 24.0449C8.43695 22.428 9.06157 20.7285 9.8458 19.0009C9.06157 17.2728 8.43647 15.5728 7.98427 13.9554C4.14865 15.255 1.9 17.1641 1.9 18.9999C1.9 20.8363 4.14912 22.7453 7.98475 24.0449ZM24.6449 25.2733C26.096 25.0719 27.4355 24.7964 28.6482 24.4624C28.3105 23.254 27.8682 21.9905 27.3344 20.7033C26.9406 21.4752 26.5188 22.2485 26.0661 23.018C25.6087 23.796 25.1332 24.5479 24.6449 25.2733ZM13.3518 25.2728C12.8635 24.5475 12.388 23.796 11.9301 23.0184C11.4779 22.2494 11.0566 21.4766 10.6633 20.7052C10.1294 21.9915 9.68762 23.2545 9.35037 24.4624C10.5626 24.7954 11.9016 25.0709 13.3518 25.2728ZM11.6252 34.2014C13.4012 34.2014 15.6536 32.9806 17.9674 30.9172C16.7737 29.7349 15.59 28.3636 14.458 26.8384C12.4901 26.6299 10.6571 26.2869 9.006 25.8333C8.4911 28.1598 8.39847 30.2156 8.80555 31.7366C9.0801 32.7626 9.5646 33.4784 10.2448 33.8646C10.6381 34.0883 11.1031 34.2014 11.6252 34.2014ZM26.3753 34.1985C26.8974 34.1985 27.3614 34.0855 27.7561 33.8617C28.4354 33.4765 28.9185 32.7621 29.1926 31.7371C29.6001 30.2156 29.5075 28.1598 28.9926 25.8338C27.341 26.2874 25.5075 26.6303 23.5391 26.8389C22.4086 28.3636 21.2254 29.7345 20.0331 30.9167C22.3468 32.9782 24.5993 34.198 26.3753 34.1985ZM19 29.9439C19.8821 29.068 20.7637 28.0786 21.6229 26.9961C20.7675 27.0469 19.9324 27.1543 19.0394 27.1543C18.146 27.1543 17.2311 27.0469 16.3751 26.9961C17.2349 28.0791 18.1174 29.0685 19 29.9439ZM11.4551 1.93414C10.6006 1.93414 9.98973 2.09469 9.30667 2.48182C8.16715 3.12829 7.38055 4.23504 6.9692 5.77167C6.5132 7.47549 6.55262 9.71512 7.0813 12.2701C2.57402 13.8647 0 16.3043 0 18.9999C0 21.696 2.5745 24.1352 7.08178 25.7297C6.5531 28.2848 6.51367 30.5244 6.97015 32.2282C7.38102 33.7639 8.16715 34.8706 9.30762 35.5181C9.99162 35.9057 10.8134 36.0705 11.6674 36.0705C13.7987 36.0705 16.3001 34.8664 19.0005 32.5241C21.7004 34.864 24.244 36.098 26.3748 36.0985C27.2294 36.0985 28.0093 35.9023 28.6933 35.5147C29.8319 34.8692 30.6175 33.7639 31.0284 32.2292C31.4849 30.5249 31.4455 28.2852 30.9168 25.7307C35.425 24.1356 38 21.696 38 18.9999C38 16.3038 35.4255 13.8642 30.9173 12.2697C31.4464 9.71417 31.4854 7.47454 31.0289 5.77072C30.6175 4.23599 29.8314 3.13067 28.6924 2.48514C28.0088 2.09802 27.2289 1.90137 26.3748 1.90137C24.2445 1.90137 21.7013 3.13589 19.0009 5.47669C16.3001 3.13399 13.7446 1.93272 11.6128 1.93272L11.4551 1.93414ZM9.367 11.579C9.14755 10.4751 9.0003 9.44057 8.99222 8.53332C8.9851 7.71632 9.0972 7.00524 9.26297 6.38584C9.5038 5.48714 9.91278 4.86869 10.4785 4.54759C10.7996 4.36519 11.191 4.24169 11.6294 4.24169C13.1404 4.24169 15.1288 5.27624 17.2738 7.10784C16.2189 8.18752 15.1876 9.39687 14.2025 10.7107C12.4996 10.9007 10.8761 11.1919 9.367 11.579ZM20.7281 7.10879C22.8727 5.27862 24.8658 4.27637 26.3748 4.27637C26.8137 4.27637 27.1999 4.36899 27.5215 4.55139C28.0863 4.87154 28.4948 5.48857 28.7351 6.38537C29.1503 7.72392 29.0966 9.50327 28.6316 11.5785C27.1225 11.1919 25.4994 10.9002 23.797 10.7112C22.8123 9.39782 21.7821 8.18847 20.7281 7.10879ZM17.4197 10.4784C17.9403 9.86094 18.469 9.27669 19.0005 8.73139C19.532 9.27669 20.0602 9.86094 20.5803 10.4784C20.0488 10.4594 19.5201 10.4499 19 10.4499C18.4799 10.4499 17.9517 10.4594 17.4197 10.4784ZM15.4969 12.9674C16.6392 12.8729 17.8163 12.8055 19 12.8055C20.1832 12.8055 21.3603 12.8729 22.5022 12.9674C23.1824 13.9265 23.8303 14.9273 24.4288 15.9452C25.0092 16.9323 25.556 17.9587 26.0547 18.9995C25.5555 20.0407 25.0088 21.0676 24.4283 22.0547C23.8293 23.0731 23.1819 24.0734 22.5017 25.0324C21.3603 25.127 20.1832 25.2538 19 25.2538C17.8158 25.2538 16.6383 25.1265 15.4955 25.032C14.8148 24.0734 14.1669 23.0726 13.5679 22.0542C12.9874 21.0676 12.4412 20.0411 11.9424 18.9999C12.4412 17.9587 12.9879 16.9318 13.5684 15.9447C14.1678 14.9268 14.8162 13.926 15.4969 12.9674ZM27.2754 16.1613C27.0147 15.6778 26.7472 15.2028 26.476 14.7411C26.2053 14.2808 25.9217 13.8186 25.6281 13.3593C26.4708 13.5028 27.2835 13.6742 28.0573 13.8723C27.8355 14.6162 27.5737 15.3819 27.2754 16.1613ZM9.9408 13.8723C10.7146 13.6742 11.5273 13.5028 12.3699 13.3593C12.0759 13.8186 11.7923 14.2808 11.5216 14.7406C11.2504 15.2023 10.983 15.6773 10.7222 16.1609C10.4239 15.3823 10.1626 14.6166 9.9408 13.8723ZM28.6734 18.9995C29.3455 17.4975 29.9022 16.0108 30.3311 14.5696C33.6101 15.7661 35.625 17.4424 35.625 18.9999C35.625 20.5575 33.6101 22.2337 30.3311 23.4303C29.9017 21.9886 29.3455 20.5014 28.6734 18.9995ZM7.66745 23.4298C4.38947 22.2333 2.375 20.557 2.375 18.9999C2.375 17.4429 4.38948 15.7666 7.66698 14.5701C8.0959 16.0117 8.65212 17.4985 9.32425 19.0004C8.6526 20.5019 8.09638 21.9886 7.66745 23.4298ZM25.6277 24.641C25.9212 24.1812 26.2053 23.7191 26.4755 23.2593C26.7472 22.7976 27.0147 22.3221 27.2754 21.8385C27.5737 22.618 27.835 23.3842 28.0573 24.1285C27.2831 24.3256 26.4703 24.4976 25.6277 24.641ZM9.94128 24.1276C10.1631 23.3837 10.4243 22.6185 10.7222 21.84C10.9825 22.323 11.2499 22.798 11.5211 23.2593C11.7914 23.7191 12.075 24.1808 12.369 24.6406C11.5268 24.4966 10.7146 24.3252 9.94128 24.1276ZM11.6252 33.7264C11.1863 33.7264 10.8006 33.6337 10.479 33.4513C9.91372 33.1302 9.50475 32.5123 9.2644 31.6136C8.86967 30.2622 8.91432 28.4824 9.36795 26.4204C10.8765 26.807 12.4991 27.0987 14.2011 27.2877C15.1867 28.6016 16.2179 29.8114 17.2734 30.892C15.1288 32.7241 13.1352 33.7268 11.6252 33.7264ZM23.7965 27.2887C25.4989 27.0992 27.122 26.808 28.6311 26.4213C29.156 28.6728 29.1973 30.4674 28.7342 31.614C28.4943 32.5113 28.0863 33.1283 27.522 33.448C27.1999 33.6304 26.8142 33.723 26.3758 33.723V34.198L26.3753 33.723C24.8648 33.723 22.8713 32.7208 20.7271 30.8916C21.7816 29.8119 22.8119 28.6025 23.7965 27.2887ZM19 29.2694C18.468 28.7241 17.9388 28.1394 17.4182 27.5214C17.9502 27.5404 18.4794 27.5499 19 27.5499C19.5201 27.5499 20.0488 27.5404 20.5803 27.5214C20.0602 28.1394 19.5315 28.7241 19 29.2694Z" fill="#4E7AB5"/>
</g>
<defs>
<clipPath id="clip0">
<rect width="38" height="38" fill="white"/>
</clipPath>
</defs>
</svg>
