<svg width="20" height="20" viewBox="0 0 20 20" fill="none" xmlns="http://www.w3.org/2000/svg">
<g clip-path="url(#clip0)">
<path d="M17.0697 2.93003C13.1627 -0.977015 6.83837 -0.97764 2.93078 2.93003C-0.976307 6.83707 -0.976893 13.1614 2.93078 17.069C6.83774 20.976 13.1621 20.9766 17.0697 17.069C20.9768 13.1619 20.9773 6.83766 17.0697 2.93003ZM16.6518 15.6438C16.1847 15.2261 15.6851 14.8565 15.1584 14.5379C15.5065 13.3354 15.7127 12.0121 15.7615 10.6366H18.7008C18.5679 12.4907 17.8555 14.2299 16.6518 15.6438ZM1.29961 10.6366H4.23897C4.28772 12.0121 4.49395 13.3354 4.84207 14.5379C4.31539 14.8565 3.81572 15.2261 3.3486 15.6438C2.14489 14.2299 1.43255 12.4907 1.29961 10.6366ZM3.34864 4.35519C3.81576 4.7729 4.31543 5.14256 4.84211 5.46113C4.49399 6.66362 4.28775 7.98688 4.23901 9.36239H1.29961C1.43255 7.50836 2.14489 5.76912 3.34864 4.35519ZM9.36314 5.59282C8.32407 5.5185 7.32219 5.26258 6.39338 4.84038C6.93356 3.44937 7.92939 1.78101 9.36314 1.36755V5.59282ZM9.36314 6.86943V9.36243H5.51375C5.55785 8.19885 5.72272 7.08152 5.99691 6.05919C7.05241 6.52061 8.18758 6.79617 9.36314 6.86943ZM9.36314 10.6366V13.1296C8.18758 13.2029 7.05241 13.4784 5.99691 13.9399C5.72272 12.9175 5.55785 11.8002 5.51375 10.6366H9.36314ZM9.36314 14.4062V18.6315C7.92947 18.218 6.93364 16.5498 6.39338 15.1587C7.32219 14.7365 8.32407 14.4806 9.36314 14.4062ZM10.6373 14.4062C11.6764 14.4806 12.6783 14.7365 13.6071 15.1587C13.0669 16.5497 12.0711 18.218 10.6373 18.6315V14.4062ZM10.6373 13.1296V10.6366H14.4867C14.4426 11.8002 14.2778 12.9175 14.0036 13.9399C12.9481 13.4784 11.8129 13.2029 10.6373 13.1296ZM10.6373 9.36243V6.86943C11.8129 6.79617 12.9481 6.52061 14.0036 6.05919C14.2778 7.08152 14.4426 8.19885 14.4867 9.36243H10.6373ZM10.6373 5.59282V1.36759C12.0711 1.78105 13.0669 3.44941 13.6071 4.84042C12.6783 5.26258 11.6764 5.5185 10.6373 5.59282ZM13.4991 2.00368C14.3146 2.36081 15.0755 2.84506 15.7575 3.4459C15.4329 3.73215 15.0903 3.9917 14.7326 4.22382C14.4149 3.43727 14.0091 2.67289 13.4991 2.00368ZM5.26785 4.22382C4.91014 3.9917 4.5676 3.73215 4.24291 3.4459C4.92497 2.84506 5.68583 2.36081 6.50138 2.00368C5.99133 2.67297 5.58552 3.43735 5.26785 4.22382ZM5.26789 15.7752C5.58552 16.5617 5.9914 17.3262 6.50142 17.9954C5.68587 17.6383 4.92501 17.154 4.24295 16.5532C4.5676 16.2669 4.91018 16.0074 5.26789 15.7752ZM14.7326 15.7752C15.0903 16.0074 15.4329 16.2669 15.7575 16.5531C15.0755 17.154 14.3146 17.6382 13.4991 17.9953C14.0091 17.3262 14.4149 16.5618 14.7326 15.7752ZM15.7615 9.36243C15.7128 7.98692 15.5065 6.66362 15.1584 5.46117C15.6851 5.1426 16.1847 4.77294 16.6519 4.35523C17.8556 5.76912 18.5679 7.50836 18.7009 9.36243H15.7615Z" fill="white"/>
</g>
<defs>
<clipPath id="clip0">
<rect width="20" height="20" fill="white"/>
</clipPath>
</defs>
</svg>
